<?xml version="1.0" encoding="UTF-8" standalone="no"?>
<svg
   xmlns:dc="http://purl.org/dc/elements/1.1/"
   xmlns:cc="http://creativecommons.org/ns#"
   xmlns:rdf="http://www.w3.org/1999/02/22-rdf-syntax-ns#"
   xmlns:svg="http://www.w3.org/2000/svg"
   xmlns="http://www.w3.org/2000/svg"
   xmlns:sodipodi="http://sodipodi.sourceforge.net/DTD/sodipodi-0.dtd"
   xmlns:inkscape="http://www.inkscape.org/namespaces/inkscape"
   width="1920pt"
   height="1080pt"
   viewBox="0 0 1920 1080"
   version="1.2"
   id="svg59"
   sodipodi:docname="Happiness_logo_color_red.svg"
   inkscape:version="0.92.4 (unknown)">
  <metadata
     id="metadata65">
    <rdf:RDF>
      <cc:Work
         rdf:about="">
        <dc:format>image/svg+xml</dc:format>
        <dc:type
           rdf:resource="http://purl.org/dc/dcmitype/StillImage" />
        <dc:title></dc:title>
      </cc:Work>
    </rdf:RDF>
  </metadata>
  <defs
     id="defs63" />
  <sodipodi:namedview
     pagecolor="#ffffff"
     bordercolor="#666666"
     borderopacity="1"
     objecttolerance="10"
     gridtolerance="10"
     guidetolerance="10"
     inkscape:pageopacity="0"
     inkscape:pageshadow="2"
     inkscape:window-width="722"
     inkscape:window-height="480"
     id="namedview61"
     showgrid="false"
     inkscape:zoom="0.11054688"
     inkscape:cx="1280"
     inkscape:cy="720"
     inkscape:window-x="0"
     inkscape:window-y="30"
     inkscape:window-maximized="0"
     inkscape:current-layer="svg59" />
  <g
     id="surface501">
    <path
       style=" stroke:none;fill-rule:nonzero;fill:rgb(97.999573%,28.999329%,28.999329%);fill-opacity:1;"
       d="M 324.65625 434.363281 C 324.65625 434.363281 314.902344 372.070312 324.433594 318.652344 C 324.433594 318.652344 399.710938 296.085938 478.515625 349.925781 C 478.515625 349.925781 435.03125 370.742188 384.9375 448.996094 C 384.9375 448.996094 363.972656 432.695312 324.65625 434.363281 "
       id="path2" />
    <path
       style=" stroke:none;fill-rule:nonzero;fill:rgb(97.999573%,28.999329%,28.999329%);fill-opacity:1;"
       d="M 394.8125 456.347656 C 394.8125 456.347656 436.964844 393.039062 483.972656 366.472656 C 483.972656 366.472656 548.015625 394.066406 580.382812 477.832031 C 580.382812 477.832031 512.0625 480.101562 427.980469 509.6875 C 427.980469 509.6875 420.628906 479.082031 394.8125 456.347656 "
       id="path4" />
    <path
       style=" stroke:none;fill-rule:nonzero;fill:rgb(97.999573%,28.999329%,28.999329%);fill-opacity:1;"
       d="M 431.410156 521.699219 C 431.410156 521.699219 467.785156 504.628906 576.316406 495.054688 C 576.316406 495.054688 611.601562 557.980469 588.152344 660.835938 C 588.152344 660.835938 544.3125 616.042969 432.894531 584.523438 C 433.507812 584.699219 438.328125 554.15625 431.410156 521.699219 "
       id="path6" />
    <path
       style=" stroke:none;fill-rule:nonzero;fill:rgb(97.999573%,28.999329%,28.999329%);fill-opacity:1;"
       d="M 262.890625 463.660156 C 262.890625 463.660156 225.175781 441.652344 193.664062 389.648438 C 193.664062 389.648438 217.339844 330.804688 308.777344 311.695312 C 308.777344 311.695312 296.375 360.742188 312.820312 435.582031 C 312.820312 435.582031 280.746094 439.203125 262.890625 463.660156 "
       id="path8" />
    <path
       style=" stroke:none;fill-rule:nonzero;fill:rgb(97.999573%,28.999329%,28.999329%);fill-opacity:1;"
       d="M 257.253906 473.808594 C 257.253906 473.808594 212.851562 453.578125 177.847656 393.996094 C 177.847656 393.996094 131.941406 457.324219 156.121094 527.675781 C 156.121094 527.675781 191.59375 543.070312 247.980469 530.257812 C 247.980469 530.257812 239.753906 501.914062 257.253906 473.808594 "
       id="path10" />
    <path
       style=" stroke:none;fill-rule:nonzero;fill:rgb(97.999573%,28.999329%,28.999329%);fill-opacity:1;"
       d="M 251.074219 541.6875 C 251.074219 541.6875 201.277344 558.734375 151.429688 543.691406 C 151.429688 543.691406 172.386719 629.347656 243.765625 639.804688 C 243.765625 639.804688 264.351562 622.996094 283.253906 582.03125 C 283.253906 582.03125 258.851562 570.46875 251.074219 541.6875 "
       id="path12" />
    <path
       style=" stroke:none;fill-rule:nonzero;fill:rgb(97.999573%,28.999329%,28.999329%);fill-opacity:1;"
       d="M 342.464844 577.164062 C 342.464844 577.164062 321.390625 592.914062 294.109375 585.527344 C 294.109375 585.527344 281.429688 622.121094 252.652344 653.515625 C 252.652344 653.515625 315.996094 678.988281 365.007812 638.402344 C 365.007812 638.402344 363.042969 605.78125 342.464844 577.164062 "
       id="path14" />
    <path
       style=" stroke:none;fill-rule:nonzero;fill:rgb(97.999573%,28.999329%,28.999329%);fill-opacity:1;"
       d="M 350.417969 568.425781 C 350.417969 568.425781 363.097656 552.800781 359.113281 523.9375 C 359.113281 523.9375 392.1875 519.480469 415.253906 539.472656 C 415.253906 539.472656 440.269531 591.890625 379.441406 636.320312 C 379.441406 636.320312 375.621094 600.5 350.417969 568.425781 "
       id="path16" />
    <path
       style=" stroke:none;fill-rule:nonzero;fill:rgb(97.999573%,28.999329%,28.999329%);fill-opacity:1;"
       d="M 328.722656 490.035156 C 328.722656 490.035156 352.351562 489.109375 357.070312 513.640625 C 357.070312 513.640625 392.144531 505.71875 419.566406 527.578125 C 419.566406 527.578125 408.765625 452.128906 345.3125 448.8125 C 345.3125 448.8125 330.839844 461.375 328.722656 490.035156 "
       id="path18" />
    <path
       style=" stroke:none;fill-rule:nonzero;fill:rgb(97.999573%,28.999329%,28.999329%);fill-opacity:1;"
       d="M 335.183594 444.8125 C 335.183594 444.8125 302.164062 441.027344 277.898438 463.332031 C 267.566406 472.832031 260.226562 486.65625 262.914062 501.546875 C 262.914062 501.546875 278.597656 521.609375 302.878906 524.453125 C 302.878906 524.453125 299.457031 514.648438 305.703125 503.832031 C 309.457031 497.328125 314.570312 493.730469 318.652344 491.851562 C 318.144531 458.242188 335.183594 444.8125 335.183594 444.8125 "
       id="path20" />
    <path
       style=" stroke:none;fill-rule:nonzero;fill:rgb(97.999573%,28.999329%,28.999329%);fill-opacity:1;"
       d="M 351.042969 534.808594 C 351.042969 534.808594 349.902344 562.527344 329.785156 571.820312 C 308.792969 581.515625 290.226562 574.308594 280.78125 566.242188 C 262.996094 551.066406 254.183594 524.828125 257.015625 509.660156 C 257.015625 509.660156 268.214844 531.015625 307.367188 533.917969 C 307.367188 533.917969 313.277344 543.222656 325.691406 544.90625 C 337.585938 545.335938 343.105469 543.390625 351.042969 534.808594 "
       id="path22" />
    <path
       style=" stroke:none;fill-rule:nonzero;fill:rgb(97.999573%,28.999329%,28.999329%);fill-opacity:1;"
       d="M 731.566406 456.46875 L 731.566406 451.628906 L 747.765625 450.578125 L 747.765625 312.238281 L 731.566406 311.1875 L 731.566406 306.347656 L 790.898438 306.347656 L 790.898438 311.1875 L 774.695312 312.238281 L 774.695312 376.304688 L 831.292969 375.464844 L 831.292969 312.238281 L 815.09375 311.1875 L 815.09375 306.347656 L 874.421875 306.347656 L 874.421875 311.1875 L 858.222656 312.238281 L 858.222656 450.578125 L 874.421875 451.628906 L 874.421875 456.46875 L 815.09375 456.46875 L 815.09375 451.628906 L 831.292969 450.578125 L 831.292969 382.621094 L 774.695312 382.621094 L 774.695312 450.578125 L 790.898438 451.628906 L 790.898438 456.46875 Z M 731.566406 456.46875 "
       id="path24" />
    <path
       style=" stroke:none;fill-rule:nonzero;fill:rgb(97.999573%,28.999329%,28.999329%);fill-opacity:1;"
       d="M 915.136719 431.472656 C 915.136719 437.070312 916.1875 441.601562 918.289062 445.066406 C 920.394531 448.527344 923.480469 450.261719 927.546875 450.261719 C 932.316406 450.261719 936.648438 447.289062 940.539062 441.339844 C 944.433594 435.390625 946.378906 428.113281 946.378906 419.507812 L 946.378906 405.023438 C 943.570312 404.675781 941.292969 404.5 939.539062 404.5 C 935.894531 404.5 932.652344 404.988281 929.8125 405.96875 C 926.96875 406.949219 924.707031 408.277344 923.023438 409.957031 C 921.339844 411.636719 919.9375 413.402344 918.816406 415.257812 C 917.695312 417.113281 916.886719 419.160156 916.398438 421.398438 C 915.90625 423.636719 915.570312 425.492188 915.398438 426.960938 C 915.222656 428.429688 915.136719 429.933594 915.136719 431.472656 M 889.675781 433.636719 C 889.675781 430.203125 890.21875 426.890625 891.308594 423.699219 C 892.394531 420.507812 894.164062 417.4375 896.621094 414.492188 C 899.074219 411.546875 902.089844 408.988281 905.667969 406.8125 C 909.242188 404.640625 913.679688 402.902344 918.976562 401.605469 C 924.269531 400.308594 930.140625 399.660156 936.59375 399.660156 C 940.03125 399.660156 943.289062 399.800781 946.378906 400.082031 L 946.378906 385.53125 C 946.378906 380.894531 946.289062 377.132812 946.113281 374.253906 C 945.941406 371.371094 945.5 368.402344 944.800781 365.34375 C 944.097656 362.285156 943.097656 359.929688 941.800781 358.277344 C 940.503906 356.625 938.683594 355.253906 936.332031 354.167969 C 933.980469 353.078125 931.125 352.53125 927.757812 352.53125 C 917.519531 352.53125 910.050781 356.574219 905.351562 364.664062 L 905.351562 365.085938 C 906.542969 364.875 907.628906 364.765625 908.613281 364.765625 C 912.257812 364.765625 915.136719 365.894531 917.238281 368.144531 C 919.339844 370.394531 920.394531 373.628906 920.394531 377.847656 C 920.394531 381.503906 919.132812 384.582031 916.605469 387.078125 C 914.082031 389.574219 910.925781 390.824219 907.140625 390.824219 C 903 390.824219 899.742188 389.421875 897.355469 386.613281 C 894.972656 383.8125 893.78125 380.515625 893.78125 376.726562 C 893.78125 368.453125 897.582031 361.542969 905.195312 356.003906 C 912.804688 350.464844 921.550781 347.691406 931.441406 347.691406 C 938.453125 347.691406 944.433594 348.429688 949.375 349.902344 C 954.320312 351.375 958.265625 353.320312 961.210938 355.738281 C 964.15625 358.160156 966.453125 361.457031 968.101562 365.628906 C 969.746094 369.800781 970.835938 374.0625 971.363281 378.410156 C 971.886719 382.757812 972.152344 388.089844 972.152344 394.402344 L 972.152344 451.101562 L 982.988281 452.152344 L 982.988281 456.46875 L 949.535156 456.46875 L 946.589844 439.847656 L 946.378906 439.847656 C 942.941406 446.507812 938.785156 451.46875 933.914062 454.730469 C 929.039062 457.992188 923.128906 459.625 916.1875 459.625 C 907.628906 459.625 901.074219 457.0625 896.515625 451.941406 C 891.957031 446.824219 889.675781 440.722656 889.675781 433.636719 "
       id="path26" />
    <path
       style=" stroke:none;fill-rule:nonzero;fill:rgb(97.999573%,28.999329%,28.999329%);fill-opacity:1;"
       d="M 1031.375 448.683594 C 1035.375 452.257812 1039.6875 454.046875 1044.316406 454.046875 C 1047.683594 454.046875 1050.679688 453.382812 1053.308594 452.046875 C 1055.941406 450.71875 1058.113281 449.070312 1059.832031 447.105469 C 1061.550781 445.140625 1063.039062 442.566406 1064.304688 439.375 C 1065.566406 436.179688 1066.511719 433.164062 1067.144531 430.328125 C 1067.773438 427.484375 1068.265625 424.101562 1068.617188 420.175781 C 1068.964844 416.246094 1069.175781 412.988281 1069.246094 410.390625 C 1069.316406 407.796875 1069.351562 404.710938 1069.351562 401.132812 C 1069.351562 389.773438 1068.546875 380.671875 1066.933594 373.835938 C 1065.320312 366.996094 1063.214844 362.332031 1060.621094 359.839844 C 1058.027344 357.355469 1054.765625 356.109375 1050.835938 356.109375 C 1045.367188 356.109375 1040.757812 358.984375 1037.007812 364.734375 C 1033.253906 370.484375 1031.375 376.9375 1031.375 384.089844 Z M 992.664062 359.261719 L 992.664062 354.953125 L 1014.648438 352.636719 L 1029.484375 348.742188 L 1030.957031 351.792969 L 1030.957031 365.472656 L 1031.375 365.472656 C 1035.375 358.667969 1039.582031 354.003906 1044 351.480469 C 1048.417969 348.953125 1053.714844 347.691406 1059.882812 347.691406 C 1061.496094 347.691406 1063.214844 347.867188 1065.039062 348.21875 C 1066.863281 348.570312 1068.984375 349.253906 1071.402344 350.269531 C 1073.824219 351.285156 1076.152344 352.601562 1078.398438 354.214844 C 1080.644531 355.828125 1082.871094 358.074219 1085.082031 360.945312 C 1087.289062 363.824219 1089.199219 367.101562 1090.8125 370.785156 C 1092.425781 374.464844 1093.742188 379.039062 1094.757812 384.511719 C 1095.773438 389.984375 1096.28125 396.015625 1096.28125 402.605469 C 1096.28125 410.53125 1095.300781 417.875 1093.339844 424.644531 C 1091.375 431.414062 1088.496094 437.425781 1084.710938 442.6875 C 1080.925781 447.945312 1075.941406 452.085938 1069.773438 455.097656 C 1063.601562 458.113281 1056.554688 459.625 1048.628906 459.625 C 1041.683594 459.625 1035.933594 457.835938 1031.375 454.257812 L 1031.375 501.070312 L 1042.210938 502.121094 L 1042.210938 506.4375 L 994.769531 506.4375 L 994.769531 502.121094 L 1005.601562 501.070312 L 1005.601562 359.261719 Z M 992.664062 359.261719 "
       id="path28" />
    <path
       style=" stroke:none;fill-rule:nonzero;fill:rgb(97.999573%,28.999329%,28.999329%);fill-opacity:1;"
       d="M 1148.566406 448.683594 C 1152.5625 452.257812 1156.878906 454.046875 1161.503906 454.046875 C 1164.875 454.046875 1167.871094 453.382812 1170.5 452.046875 C 1173.128906 450.71875 1175.304688 449.070312 1177.023438 447.105469 C 1178.738281 445.140625 1180.230469 442.566406 1181.492188 439.375 C 1182.757812 436.179688 1183.703125 433.164062 1184.335938 430.328125 C 1184.964844 427.484375 1185.453125 424.101562 1185.808594 420.175781 C 1186.15625 416.246094 1186.367188 412.988281 1186.4375 410.390625 C 1186.507812 407.796875 1186.542969 404.710938 1186.542969 401.132812 C 1186.542969 389.773438 1185.734375 380.671875 1184.125 373.835938 C 1182.511719 366.996094 1180.40625 362.332031 1177.8125 359.839844 C 1175.21875 357.355469 1171.957031 356.109375 1168.027344 356.109375 C 1162.558594 356.109375 1157.945312 358.984375 1154.195312 364.734375 C 1150.441406 370.484375 1148.566406 376.9375 1148.566406 384.089844 Z M 1109.855469 359.261719 L 1109.855469 354.953125 L 1131.839844 352.636719 L 1146.671875 348.742188 L 1148.144531 351.792969 L 1148.144531 365.472656 L 1148.566406 365.472656 C 1152.5625 358.667969 1156.773438 354.003906 1161.191406 351.480469 C 1165.609375 348.953125 1170.902344 347.691406 1177.074219 347.691406 C 1178.6875 347.691406 1180.40625 347.867188 1182.230469 348.21875 C 1184.054688 348.570312 1186.175781 349.253906 1188.59375 350.269531 C 1191.011719 351.285156 1193.34375 352.601562 1195.589844 354.214844 C 1197.832031 355.828125 1200.058594 358.074219 1202.269531 360.945312 C 1204.480469 363.824219 1206.390625 367.101562 1208.003906 370.785156 C 1209.613281 374.464844 1210.929688 379.039062 1211.949219 384.511719 C 1212.964844 389.984375 1213.472656 396.015625 1213.472656 402.605469 C 1213.472656 410.53125 1212.492188 417.875 1210.527344 424.644531 C 1208.5625 431.414062 1205.6875 437.425781 1201.902344 442.6875 C 1198.113281 447.945312 1193.132812 452.085938 1186.964844 455.097656 C 1180.792969 458.113281 1173.746094 459.625 1165.820312 459.625 C 1158.875 459.625 1153.125 457.835938 1148.566406 454.257812 L 1148.566406 501.070312 L 1159.402344 502.121094 L 1159.402344 506.4375 L 1111.960938 506.4375 L 1111.960938 502.121094 L 1122.792969 501.070312 L 1122.792969 359.261719 Z M 1109.855469 359.261719 "
       id="path30" />
    <path
       style=" stroke:none;fill-rule:nonzero;fill:rgb(97.999573%,28.999329%,28.999329%);fill-opacity:1;"
       d="M 1239.667969 311.398438 C 1239.667969 309.4375 1240.035156 307.613281 1240.773438 305.929688 C 1241.511719 304.246094 1242.507812 302.773438 1243.769531 301.511719 C 1245.03125 300.25 1246.507812 299.265625 1248.1875 298.566406 C 1249.875 297.863281 1251.660156 297.515625 1253.554688 297.515625 C 1255.445312 297.515625 1257.234375 297.878906 1258.921875 298.617188 C 1260.601562 299.355469 1262.089844 300.351562 1263.390625 301.617188 C 1264.6875 302.878906 1265.707031 304.351562 1266.441406 306.035156 C 1267.179688 307.71875 1267.546875 309.503906 1267.546875 311.398438 C 1267.546875 313.292969 1267.179688 315.082031 1266.441406 316.765625 C 1265.707031 318.449219 1264.707031 319.9375 1263.441406 321.234375 C 1262.179688 322.535156 1260.707031 323.546875 1259.023438 324.285156 C 1257.339844 325.023438 1255.515625 325.390625 1253.554688 325.390625 C 1251.589844 325.390625 1249.769531 325.023438 1248.085938 324.285156 C 1246.398438 323.546875 1244.925781 322.550781 1243.664062 321.285156 C 1242.402344 320.023438 1241.421875 318.554688 1240.722656 316.871094 C 1240.019531 315.1875 1239.667969 313.363281 1239.667969 311.398438 M 1228.199219 359.265625 L 1228.199219 354.953125 L 1250.1875 352.636719 L 1265.019531 348.742188 L 1266.914062 351.792969 L 1266.914062 451.101562 L 1277.75 452.152344 L 1277.75 456.46875 L 1230.304688 456.46875 L 1230.304688 452.152344 L 1241.140625 451.101562 L 1241.140625 359.265625 Z M 1228.199219 359.265625 "
       id="path32" />
    <path
       style=" stroke:none;fill-rule:nonzero;fill:rgb(97.999573%,28.999329%,28.999329%);fill-opacity:1;"
       d="M 1289.742188 354.953125 L 1311.726562 352.636719 L 1326.558594 348.742188 L 1328.453125 351.792969 L 1328.035156 365.996094 L 1328.453125 365.996094 C 1336.800781 353.792969 1347.597656 347.691406 1360.855469 347.691406 C 1363.378906 347.691406 1365.800781 347.902344 1368.113281 348.324219 C 1370.425781 348.742188 1372.988281 349.691406 1375.792969 351.164062 C 1378.597656 352.636719 1381.015625 354.566406 1383.050781 356.949219 C 1385.085938 359.335938 1386.800781 362.738281 1388.207031 367.152344 C 1389.605469 371.574219 1390.308594 376.726562 1390.308594 382.617188 L 1390.308594 451.101562 L 1401.039062 452.152344 L 1401.039062 456.46875 L 1353.699219 456.46875 L 1353.699219 452.152344 L 1364.429688 451.101562 L 1364.429688 379.566406 C 1364.429688 364.628906 1359.625 357.160156 1350.019531 357.160156 C 1343.707031 357.160156 1338.535156 360.035156 1334.5 365.785156 C 1330.46875 371.539062 1328.453125 379.078125 1328.453125 388.402344 L 1328.453125 451.101562 L 1339.289062 452.152344 L 1339.289062 456.46875 L 1291.84375 456.46875 L 1291.84375 452.152344 L 1302.679688 451.101562 L 1302.679688 359.054688 L 1289.953125 359.261719 Z M 1289.742188 354.953125 "
       id="path34" />
    <path
       style=" stroke:none;fill-rule:nonzero;fill:rgb(97.999573%,28.999329%,28.999329%);fill-opacity:1;"
       d="M 1437.445312 395.664062 L 1471.421875 394.300781 C 1471.632812 390.742188 1471.738281 387.324219 1471.738281 384.042969 C 1471.738281 373.921875 1470.527344 366.140625 1468.109375 360.699219 C 1465.6875 355.253906 1461.675781 352.53125 1456.0625 352.53125 C 1452.695312 352.53125 1449.804688 353.632812 1447.386719 355.828125 C 1444.964844 358.027344 1443.089844 361.183594 1441.757812 365.304688 C 1440.421875 369.421875 1439.421875 373.90625 1438.757812 378.757812 C 1438.089844 383.609375 1437.65625 389.242188 1437.445312 395.664062 M 1410.511719 403.65625 C 1410.511719 398.1875 1411.039062 392.839844 1412.089844 387.613281 C 1413.140625 382.390625 1414.859375 377.359375 1417.246094 372.519531 C 1419.628906 367.679688 1422.539062 363.4375 1425.976562 359.789062 C 1429.414062 356.144531 1433.671875 353.214844 1438.757812 351.003906 C 1443.84375 348.796875 1449.46875 347.691406 1455.644531 347.691406 C 1461.464844 347.691406 1466.6875 348.515625 1471.316406 350.164062 C 1475.945312 351.8125 1479.800781 354.109375 1482.890625 357.054688 C 1485.972656 360 1488.535156 363.59375 1490.570312 367.835938 C 1492.601562 372.082031 1494.054688 376.675781 1494.933594 381.621094 C 1495.808594 386.5625 1496.25 391.980469 1496.25 397.871094 L 1493.410156 400.503906 L 1437.445312 400.503906 L 1437.445312 406.917969 C 1437.445312 437.496094 1446.136719 452.785156 1463.53125 452.785156 C 1475.875 452.785156 1485.726562 446.613281 1493.09375 434.269531 L 1497.195312 436.796875 C 1488.148438 452.015625 1475.277344 459.625 1458.585938 459.625 C 1442.457031 459.625 1430.414062 454.644531 1422.453125 444.683594 C 1414.492188 434.726562 1410.511719 421.050781 1410.511719 403.65625 "
       id="path36" />
    <path
       style=" stroke:none;fill-rule:nonzero;fill:rgb(97.999573%,28.999329%,28.999329%);fill-opacity:1;"
       d="M 1549.371094 454.574219 C 1557.367188 454.574219 1563.273438 453.097656 1567.097656 450.144531 C 1570.921875 447.1875 1572.832031 443.5 1572.832031 439.066406 C 1572.832031 436.746094 1572.464844 434.691406 1571.726562 432.894531 C 1570.992188 431.101562 1569.796875 429.378906 1568.152344 427.726562 C 1566.5 426.074219 1564.328125 424.386719 1561.628906 422.660156 C 1558.925781 420.941406 1555.578125 418.988281 1551.582031 416.808594 C 1548.074219 414.773438 1544.359375 412.652344 1540.429688 410.445312 C 1536.5 408.234375 1532.875 405.675781 1529.542969 402.765625 C 1526.210938 399.855469 1523.441406 396.46875 1521.230469 392.613281 C 1519.023438 388.753906 1517.917969 384.125 1517.917969 378.726562 C 1517.917969 373.957031 1518.828125 369.644531 1520.652344 365.785156 C 1522.476562 361.929688 1525.019531 358.652344 1528.28125 355.949219 C 1531.542969 353.25 1535.433594 351.164062 1539.957031 349.691406 C 1544.480469 348.21875 1549.441406 347.480469 1554.84375 347.480469 C 1558.910156 347.480469 1562.996094 347.992188 1567.097656 349.007812 C 1571.203125 350.023438 1574.898438 351.550781 1578.195312 353.582031 C 1581.492188 355.617188 1584.15625 358.144531 1586.191406 361.15625 C 1588.226562 364.171875 1589.242188 367.679688 1589.242188 371.679688 C 1589.242188 373.222656 1588.980469 374.730469 1588.453125 376.199219 C 1587.925781 377.671875 1587.140625 379.007812 1586.085938 380.199219 C 1585.035156 381.390625 1583.753906 382.355469 1582.246094 383.09375 C 1580.738281 383.828125 1579.003906 384.195312 1577.039062 384.195312 C 1572.972656 384.195312 1569.921875 383.074219 1567.886719 380.828125 C 1565.851562 378.585938 1564.835938 375.851562 1564.835938 372.625 C 1564.835938 370.589844 1565.117188 368.855469 1565.675781 367.417969 C 1566.238281 365.980469 1566.992188 364.789062 1567.941406 363.839844 C 1568.886719 362.894531 1569.972656 362.191406 1571.203125 361.734375 C 1572.425781 361.28125 1573.671875 361.054688 1574.933594 361.054688 L 1575.882812 361.054688 L 1575.882812 360.847656 C 1575.179688 359.738281 1574.164062 358.679688 1572.832031 357.671875 C 1571.5 356.671875 1569.921875 355.769531 1568.097656 354.972656 C 1566.273438 354.175781 1564.238281 353.535156 1561.996094 353.050781 C 1559.75 352.5625 1557.367188 352.320312 1554.84375 352.320312 C 1551.125 352.320312 1547.96875 352.8125 1545.375 353.789062 C 1542.78125 354.769531 1540.660156 356.011719 1539.011719 357.511719 C 1537.363281 359.019531 1536.152344 360.675781 1535.382812 362.496094 C 1534.609375 364.316406 1534.226562 366.0625 1534.226562 367.742188 C 1534.226562 369.769531 1534.539062 371.515625 1535.171875 372.984375 C 1535.800781 374.457031 1536.90625 375.941406 1538.484375 377.445312 C 1540.0625 378.949219 1542.234375 380.574219 1545.007812 382.320312 C 1547.777344 384.070312 1551.265625 386.167969 1555.472656 388.613281 C 1559.542969 390.71875 1563.835938 392.964844 1568.359375 395.347656 C 1572.882812 397.730469 1577.039062 400.484375 1580.828125 403.605469 C 1584.613281 406.726562 1587.753906 410.304688 1590.242188 414.335938 C 1592.730469 418.367188 1593.976562 423.085938 1593.976562 428.484375 C 1593.976562 433.042969 1593.117188 437.21875 1591.398438 441.003906 C 1589.679688 444.789062 1587.015625 448.050781 1583.402344 450.785156 C 1579.789062 453.519531 1575.199219 455.644531 1569.625 457.152344 C 1564.046875 458.660156 1557.4375 459.414062 1549.792969 459.414062 C 1546.144531 459.414062 1542.253906 458.957031 1538.117188 458.046875 C 1533.976562 457.132812 1530.15625 455.679688 1526.652344 453.679688 C 1523.144531 451.679688 1520.230469 449.085938 1517.917969 445.894531 C 1515.605469 442.703125 1514.449219 438.792969 1514.449219 434.164062 C 1514.449219 432.203125 1514.765625 430.308594 1515.394531 428.484375 C 1516.027344 426.660156 1516.921875 425.03125 1518.078125 423.59375 C 1519.234375 422.15625 1520.652344 421.015625 1522.335938 420.171875 C 1524.019531 419.332031 1525.949219 418.910156 1528.121094 418.910156 C 1530.015625 418.910156 1531.699219 419.246094 1533.171875 419.910156 C 1534.644531 420.578125 1535.890625 421.453125 1536.90625 422.539062 C 1537.921875 423.628906 1538.710938 424.90625 1539.273438 426.378906 C 1539.832031 427.855469 1540.148438 429.433594 1540.21875 431.113281 C 1540.21875 433.078125 1539.871094 434.8125 1539.167969 436.320312 C 1538.464844 437.828125 1537.554688 439.074219 1536.433594 440.058594 C 1535.3125 441.039062 1534.03125 441.792969 1532.59375 442.316406 C 1531.15625 442.84375 1529.734375 443.105469 1528.332031 443.105469 L 1527.4375 443.105469 C 1527.125 443.105469 1526.824219 443.074219 1526.546875 443 L 1526.546875 443.214844 C 1527.175781 444.628906 1528.121094 446.011719 1529.382812 447.355469 C 1530.648438 448.699219 1532.242188 449.902344 1534.171875 450.964844 C 1536.097656 452.027344 1538.34375 452.894531 1540.90625 453.566406 C 1543.464844 454.238281 1546.285156 454.574219 1549.371094 454.574219 "
       id="path38" />
    <path
       style=" stroke:none;fill-rule:nonzero;fill:rgb(97.999573%,28.999329%,28.999329%);fill-opacity:1;"
       d="M 1645.3125 454.574219 C 1653.308594 454.574219 1659.214844 453.097656 1663.039062 450.144531 C 1666.859375 447.1875 1668.769531 443.5 1668.769531 439.066406 C 1668.769531 436.746094 1668.402344 434.691406 1667.667969 432.894531 C 1666.929688 431.101562 1665.738281 429.378906 1664.089844 427.726562 C 1662.441406 426.074219 1660.265625 424.386719 1657.566406 422.660156 C 1654.867188 420.941406 1651.519531 418.988281 1647.519531 416.808594 C 1644.011719 414.773438 1640.296875 412.652344 1636.371094 410.445312 C 1632.441406 408.234375 1628.8125 405.675781 1625.484375 402.765625 C 1622.152344 399.855469 1619.382812 396.46875 1617.171875 392.613281 C 1614.964844 388.753906 1613.859375 384.125 1613.859375 378.726562 C 1613.859375 373.957031 1614.769531 369.644531 1616.59375 365.785156 C 1618.414062 361.929688 1620.957031 358.652344 1624.21875 355.949219 C 1627.480469 353.25 1631.375 351.164062 1635.898438 349.691406 C 1640.421875 348.21875 1645.378906 347.480469 1650.785156 347.480469 C 1654.847656 347.480469 1658.933594 347.992188 1663.039062 349.007812 C 1667.140625 350.023438 1670.839844 351.550781 1674.136719 353.582031 C 1677.433594 355.617188 1680.097656 358.144531 1682.132812 361.15625 C 1684.164062 364.171875 1685.179688 367.679688 1685.179688 371.679688 C 1685.179688 373.222656 1684.917969 374.730469 1684.390625 376.199219 C 1683.867188 377.671875 1683.078125 379.007812 1682.027344 380.199219 C 1680.976562 381.390625 1679.695312 382.355469 1678.1875 383.09375 C 1676.679688 383.828125 1674.941406 384.195312 1672.980469 384.195312 C 1668.914062 384.195312 1665.859375 383.074219 1663.828125 380.828125 C 1661.792969 378.585938 1660.777344 375.851562 1660.777344 372.625 C 1660.777344 370.589844 1661.054688 368.855469 1661.617188 367.417969 C 1662.179688 365.980469 1662.933594 364.789062 1663.878906 363.839844 C 1664.824219 362.894531 1665.914062 362.191406 1667.140625 361.734375 C 1668.367188 361.28125 1669.613281 361.054688 1670.875 361.054688 L 1671.824219 361.054688 L 1671.824219 360.847656 C 1671.121094 359.738281 1670.101562 358.679688 1668.769531 357.671875 C 1667.4375 356.671875 1665.859375 355.769531 1664.039062 354.972656 C 1662.210938 354.175781 1660.179688 353.535156 1657.933594 353.050781 C 1655.691406 352.5625 1653.308594 352.320312 1650.785156 352.320312 C 1647.0625 352.320312 1643.910156 352.8125 1641.3125 353.789062 C 1638.71875 354.769531 1636.597656 356.011719 1634.953125 357.511719 C 1633.300781 359.019531 1632.09375 360.675781 1631.320312 362.496094 C 1630.550781 364.316406 1630.164062 366.0625 1630.164062 367.742188 C 1630.164062 369.769531 1630.476562 371.515625 1631.109375 372.984375 C 1631.742188 374.457031 1632.847656 375.941406 1634.425781 377.445312 C 1636.003906 378.949219 1638.175781 380.574219 1640.949219 382.320312 C 1643.714844 384.070312 1647.207031 386.167969 1651.414062 388.613281 C 1655.480469 390.71875 1659.777344 392.964844 1664.300781 395.347656 C 1668.824219 397.730469 1672.980469 400.484375 1676.765625 403.605469 C 1680.554688 406.726562 1683.691406 410.304688 1686.179688 414.335938 C 1688.671875 418.367188 1689.917969 423.085938 1689.917969 428.484375 C 1689.917969 433.042969 1689.058594 437.21875 1687.339844 441.003906 C 1685.621094 444.789062 1682.953125 448.050781 1679.34375 450.785156 C 1675.730469 453.519531 1671.140625 455.644531 1665.5625 457.152344 C 1659.988281 458.660156 1653.375 459.414062 1645.734375 459.414062 C 1642.085938 459.414062 1638.195312 458.957031 1634.058594 458.046875 C 1629.917969 457.132812 1626.097656 455.679688 1622.589844 453.679688 C 1619.082031 451.679688 1616.171875 449.085938 1613.859375 445.894531 C 1611.542969 442.703125 1610.386719 438.792969 1610.386719 434.164062 C 1610.386719 432.203125 1610.703125 430.308594 1611.332031 428.484375 C 1611.964844 426.660156 1612.859375 425.03125 1614.015625 423.59375 C 1615.175781 422.15625 1616.59375 421.015625 1618.277344 420.171875 C 1619.960938 419.332031 1621.886719 418.910156 1624.0625 418.910156 C 1625.957031 418.910156 1627.640625 419.246094 1629.113281 419.910156 C 1630.585938 420.578125 1631.828125 421.453125 1632.847656 422.539062 C 1633.863281 423.628906 1634.652344 424.90625 1635.214844 426.378906 C 1635.773438 427.855469 1636.089844 429.433594 1636.160156 431.113281 C 1636.160156 433.078125 1635.808594 434.8125 1635.109375 436.320312 C 1634.40625 437.828125 1633.496094 439.074219 1632.375 440.058594 C 1631.25 441.039062 1629.96875 441.792969 1628.53125 442.316406 C 1627.09375 442.84375 1625.675781 443.105469 1624.273438 443.105469 L 1623.378906 443.105469 C 1623.0625 443.105469 1622.765625 443.074219 1622.484375 443 L 1622.484375 443.214844 C 1623.117188 444.628906 1624.0625 446.011719 1625.324219 447.355469 C 1626.585938 448.699219 1628.179688 449.902344 1630.113281 450.964844 C 1632.039062 452.027344 1634.28125 452.894531 1636.84375 453.566406 C 1639.402344 454.238281 1642.226562 454.574219 1645.3125 454.574219 "
       id="path40" />
    <path
       style=" stroke:none;fill-rule:nonzero;fill:rgb(97.999573%,28.999329%,28.999329%);fill-opacity:1;"
       d="M 774.695312 672.023438 C 778.484375 672.726562 782.128906 673.074219 785.636719 673.074219 C 796.789062 673.074219 805.535156 669.851562 811.886719 663.398438 C 818.230469 656.945312 821.40625 648.179688 821.40625 637.097656 C 821.40625 625.246094 818.125 616.183594 811.566406 609.902344 C 805.007812 603.628906 795.945312 600.488281 784.375 600.488281 C 781.078125 600.488281 777.851562 600.734375 774.695312 601.226562 Z M 774.695312 594.074219 C 777.644531 594.492188 780.339844 594.703125 782.796875 594.703125 C 804.046875 594.703125 814.671875 584.183594 814.671875 563.144531 C 814.671875 554.167969 812.285156 547.15625 807.519531 542.105469 C 802.75 537.054688 795.457031 534.53125 785.636719 534.53125 C 782.128906 534.53125 778.484375 534.882812 774.695312 535.582031 Z M 731.566406 678.863281 L 731.566406 674.023438 L 747.765625 672.972656 L 747.765625 534.632812 L 731.566406 533.582031 L 731.566406 528.746094 L 787.847656 528.746094 C 793.878906 528.746094 799.363281 529.027344 804.3125 529.585938 C 809.253906 530.148438 814.144531 531.183594 818.984375 532.6875 C 823.824219 534.199219 827.871094 536.179688 831.136719 538.632812 C 834.394531 541.089844 837.023438 544.332031 839.023438 548.363281 C 841.023438 552.398438 842.023438 557.113281 842.023438 562.511719 C 842.023438 566.792969 841.078125 570.738281 839.183594 574.347656 C 837.289062 577.960938 834.886719 580.960938 831.976562 583.339844 C 829.066406 585.726562 825.679688 587.851562 821.824219 589.707031 C 817.96875 591.566406 814.25 592.984375 810.675781 593.964844 C 807.097656 594.949219 803.519531 595.6875 799.941406 596.175781 L 799.941406 596.597656 C 807.027344 596.597656 813.550781 597.421875 819.511719 599.070312 C 825.472656 600.71875 830.679688 603.15625 835.132812 606.378906 C 839.585938 609.605469 843.074219 613.832031 845.597656 619.058594 C 848.125 624.28125 849.386719 630.226562 849.386719 636.886719 C 849.386719 642.921875 848.300781 648.335938 846.125 653.140625 C 843.949219 657.945312 841.039062 661.925781 837.394531 665.082031 C 833.746094 668.238281 829.453125 670.867188 824.507812 672.972656 C 819.5625 675.074219 814.425781 676.582031 809.097656 677.496094 C 803.765625 678.40625 798.1875 678.863281 792.367188 678.863281 Z M 731.566406 678.863281 "
       id="path42" />
    <path
       style=" stroke:none;fill-rule:nonzero;fill:rgb(97.999573%,28.999329%,28.999329%);fill-opacity:1;"
       d="M 894.097656 625.421875 C 894.097656 633.191406 894.480469 640.136719 895.253906 646.261719 C 896.023438 652.386719 897.214844 657.808594 898.828125 662.535156 C 900.441406 667.257812 902.617188 670.878906 905.351562 673.402344 C 908.085938 675.917969 911.3125 677.179688 915.03125 677.179688 C 929.125 677.179688 936.171875 660.347656 936.171875 626.683594 C 936.171875 618.214844 935.839844 610.933594 935.175781 604.847656 C 934.507812 598.757812 933.386719 593.386719 931.808594 588.730469 C 930.230469 584.078125 928.039062 580.613281 925.234375 578.339844 C 922.429688 576.0625 919.027344 574.925781 915.03125 574.925781 C 911.3125 574.925781 908.085938 576.1875 905.351562 578.707031 C 902.617188 581.226562 900.441406 584.792969 898.828125 589.414062 C 897.214844 594.035156 896.023438 599.316406 895.253906 605.265625 C 894.480469 611.214844 894.097656 617.933594 894.097656 625.421875 M 867.164062 626.683594 C 867.164062 616.09375 869.214844 606.484375 873.320312 597.859375 C 877.421875 589.234375 883.171875 582.449219 890.570312 577.503906 C 897.96875 572.558594 906.332031 570.085938 915.660156 570.085938 C 923.375 570.085938 930.335938 571.683594 936.542969 574.875 C 942.75 578.066406 947.730469 582.324219 951.480469 587.65625 C 955.230469 592.984375 958.109375 598.929688 960.105469 605.488281 C 962.105469 612.042969 963.105469 618.898438 963.105469 626.050781 C 963.105469 636.363281 961.140625 645.761719 957.214844 654.246094 C 953.285156 662.730469 947.65625 669.480469 940.328125 674.496094 C 933 679.507812 924.707031 682.019531 915.449219 682.019531 C 907.246094 682.019531 900.003906 680.5625 893.726562 677.652344 C 887.449219 674.742188 882.402344 670.710938 878.578125 665.554688 C 874.757812 660.402344 871.898438 654.5625 870.003906 648.039062 C 868.113281 641.515625 867.164062 634.402344 867.164062 626.683594 "
       id="path44" />
    <path
       style=" stroke:none;fill-rule:nonzero;fill:rgb(97.999573%,28.999329%,28.999329%);fill-opacity:1;"
       d="M 970.789062 581.65625 L 970.789062 577.347656 L 992.773438 575.03125 L 1007.609375 571.136719 L 1009.605469 574.1875 L 1009.605469 650.144531 C 1009.605469 654.28125 1010.042969 657.820312 1010.921875 660.769531 C 1011.796875 663.714844 1012.78125 665.90625 1013.867188 667.34375 C 1014.953125 668.78125 1016.320312 669.902344 1017.96875 670.710938 C 1019.617188 671.515625 1020.898438 671.972656 1021.808594 672.078125 C 1022.71875 672.183594 1023.738281 672.234375 1024.859375 672.234375 C 1029.765625 672.234375 1034.277344 669.132812 1038.378906 662.925781 C 1042.480469 656.71875 1044.53125 649.089844 1044.53125 640.042969 L 1044.53125 581.65625 L 1031.59375 581.65625 L 1031.59375 577.347656 L 1053.578125 575.03125 L 1068.410156 571.136719 L 1070.304688 574.1875 L 1070.304688 673.496094 L 1081.140625 674.546875 L 1081.140625 678.863281 L 1048.109375 678.863281 L 1044.953125 662.660156 L 1044.53125 662.660156 C 1042.707031 665.328125 1040.992188 667.589844 1039.375 669.445312 C 1037.761719 671.304688 1035.730469 673.304688 1033.277344 675.441406 C 1030.820312 677.582031 1027.996094 679.210938 1024.808594 680.335938 C 1021.617188 681.457031 1018.195312 682.019531 1014.550781 682.019531 C 1012.027344 682.019531 1009.570312 681.808594 1007.1875 681.386719 C 1004.800781 680.964844 1002.121094 680.035156 999.140625 678.597656 C 996.160156 677.164062 993.597656 675.230469 991.460938 672.8125 C 989.320312 670.394531 987.496094 666.992188 985.988281 662.609375 C 984.480469 658.226562 983.726562 653.089844 983.726562 647.195312 L 983.726562 581.65625 Z M 970.789062 581.65625 "
       id="path46" />
    <path
       style=" stroke:none;fill-rule:nonzero;fill:rgb(97.999573%,28.999329%,28.999329%);fill-opacity:1;"
       d="M 1087.769531 577.765625 L 1087.769531 573.242188 L 1105.652344 573.242188 L 1105.652344 549.996094 L 1114.699219 549.046875 L 1129.53125 545.15625 L 1131.53125 548.207031 L 1131.53125 573.242188 L 1154.566406 573.242188 L 1154.566406 577.765625 L 1131.53125 578.714844 L 1131.53125 652.773438 C 1131.53125 657.050781 1132.039062 660.609375 1133.054688 663.449219 C 1134.070312 666.289062 1135.402344 668.238281 1137.050781 669.289062 C 1138.699219 670.34375 1140.03125 671.007812 1141.050781 671.289062 C 1142.066406 671.570312 1143.136719 671.707031 1144.257812 671.707031 C 1146.433594 671.707031 1148.519531 671.234375 1150.519531 670.289062 C 1152.515625 669.34375 1154.339844 667.957031 1155.988281 666.132812 C 1157.636719 664.308594 1158.984375 662.644531 1160.039062 661.136719 C 1161.089844 659.628906 1162.28125 657.785156 1163.613281 655.613281 L 1168.140625 658.347656 C 1164.417969 664.519531 1161.195312 669.007812 1158.460938 671.8125 C 1151.796875 678.617188 1144.117188 682.019531 1135.421875 682.019531 C 1132.125 682.019531 1129.195312 681.789062 1126.636719 681.335938 C 1124.078125 680.875 1121.429688 679.914062 1118.695312 678.441406 C 1115.960938 676.96875 1113.679688 674.988281 1111.855469 672.496094 C 1110.03125 670.007812 1108.542969 666.570312 1107.386719 662.1875 C 1106.230469 657.804688 1105.652344 652.667969 1105.652344 646.777344 L 1105.652344 578.714844 Z M 1087.769531 577.765625 "
       id="path48" />
    <path
       style=" stroke:none;fill-rule:nonzero;fill:rgb(97.999573%,28.999329%,28.999329%);fill-opacity:1;"
       d="M 1183.917969 533.792969 C 1183.917969 531.832031 1184.285156 530.007812 1185.019531 528.324219 C 1185.757812 526.640625 1186.757812 525.167969 1188.019531 523.90625 C 1189.28125 522.644531 1190.753906 521.660156 1192.4375 520.960938 C 1194.121094 520.257812 1195.910156 519.910156 1197.804688 519.910156 C 1199.695312 519.910156 1201.484375 520.277344 1203.167969 521.011719 C 1204.851562 521.75 1206.339844 522.746094 1207.640625 524.011719 C 1208.933594 525.273438 1209.953125 526.746094 1210.6875 528.429688 C 1211.425781 530.113281 1211.792969 531.898438 1211.792969 533.792969 C 1211.792969 535.6875 1211.425781 537.476562 1210.6875 539.160156 C 1209.953125 540.84375 1208.953125 542.332031 1207.691406 543.628906 C 1206.429688 544.929688 1204.957031 545.945312 1203.273438 546.679688 C 1201.589844 547.417969 1199.765625 547.785156 1197.804688 547.785156 C 1195.839844 547.785156 1194.015625 547.417969 1192.332031 546.679688 C 1190.648438 545.945312 1189.175781 544.945312 1187.914062 543.683594 C 1186.652344 542.417969 1185.671875 540.949219 1184.96875 539.265625 C 1184.265625 537.582031 1183.917969 535.757812 1183.917969 533.792969 M 1172.449219 581.660156 L 1172.449219 577.347656 L 1194.4375 575.03125 L 1209.269531 571.140625 L 1211.164062 574.191406 L 1211.164062 673.496094 L 1222 674.546875 L 1222 678.863281 L 1174.554688 678.863281 L 1174.554688 674.546875 L 1185.390625 673.496094 L 1185.390625 581.660156 Z M 1172.449219 581.660156 "
       id="path50" />
    <path
       style=" stroke:none;fill-rule:nonzero;fill:rgb(97.999573%,28.999329%,28.999329%);fill-opacity:1;"
       d="M 1263.867188 629.3125 C 1263.867188 637.941406 1264.425781 645.320312 1265.550781 651.457031 C 1266.671875 657.59375 1268.179688 662.171875 1270.074219 665.1875 C 1271.964844 668.203125 1273.929688 670.34375 1275.964844 671.605469 C 1277.996094 672.867188 1280.171875 673.496094 1282.484375 673.496094 C 1287.675781 673.496094 1292.304688 670.570312 1296.371094 664.710938 C 1300.441406 658.855469 1302.476562 652.421875 1302.476562 645.410156 L 1302.476562 595.652344 C 1302.050781 590.53125 1300.210938 586.042969 1296.949219 582.183594 C 1293.691406 578.328125 1289.851562 576.398438 1285.433594 576.398438 C 1282.554688 576.398438 1279.980469 577.066406 1277.699219 578.398438 C 1275.421875 579.730469 1273.542969 581.378906 1272.070312 583.34375 C 1270.597656 585.308594 1269.316406 587.882812 1268.234375 591.074219 C 1267.144531 594.265625 1266.320312 597.28125 1265.757812 600.121094 C 1265.199219 602.960938 1264.777344 606.347656 1264.496094 610.273438 C 1264.214844 614.199219 1264.042969 617.460938 1263.96875 620.054688 C 1263.902344 622.652344 1263.867188 625.738281 1263.867188 629.3125 M 1236.9375 628.261719 C 1236.9375 620.476562 1237.847656 613.128906 1239.671875 606.222656 C 1241.492188 599.316406 1244.125 593.144531 1247.5625 587.707031 C 1250.996094 582.273438 1255.484375 577.976562 1261.027344 574.820312 C 1266.566406 571.664062 1272.84375 570.085938 1279.855469 570.085938 C 1283.785156 570.085938 1287.832031 571 1292.007812 572.820312 C 1296.175781 574.644531 1299.667969 577.558594 1302.476562 581.554688 L 1324.039062 573.242188 L 1328.351562 573.242188 L 1328.351562 723.464844 L 1339.082031 724.519531 L 1339.082031 728.832031 L 1291.742188 728.832031 L 1291.742188 724.519531 L 1302.476562 723.464844 L 1302.476562 663.921875 L 1302.050781 663.921875 C 1298.054688 670.726562 1293.8125 675.441406 1289.324219 678.074219 C 1284.835938 680.703125 1279.539062 682.019531 1273.441406 682.019531 C 1271.753906 682.019531 1270.019531 681.875 1268.234375 681.597656 C 1266.445312 681.316406 1264.320312 680.703125 1261.867188 679.757812 C 1259.410156 678.808594 1257.082031 677.566406 1254.871094 676.023438 C 1252.664062 674.480469 1250.433594 672.324219 1248.191406 669.554688 C 1245.949219 666.78125 1244.019531 663.574219 1242.40625 659.925781 C 1240.792969 656.28125 1239.476562 651.738281 1238.460938 646.304688 C 1237.445312 640.867188 1236.9375 634.855469 1236.9375 628.261719 "
       id="path52" />
    <path
       style=" stroke:none;fill-rule:nonzero;fill:rgb(97.999573%,28.999329%,28.999329%);fill-opacity:1;"
       d="M 1347.5 581.65625 L 1347.5 577.347656 L 1369.484375 575.03125 L 1384.316406 571.136719 L 1386.316406 574.1875 L 1386.316406 650.144531 C 1386.316406 654.28125 1386.753906 657.820312 1387.632812 660.769531 C 1388.507812 663.714844 1389.488281 665.90625 1390.578125 667.34375 C 1391.664062 668.78125 1393.03125 669.902344 1394.679688 670.710938 C 1396.324219 671.515625 1397.605469 671.972656 1398.519531 672.078125 C 1399.429688 672.183594 1400.449219 672.234375 1401.570312 672.234375 C 1406.476562 672.234375 1410.984375 669.132812 1415.089844 662.925781 C 1419.1875 656.71875 1421.242188 649.089844 1421.242188 640.042969 L 1421.242188 581.65625 L 1408.300781 581.65625 L 1408.300781 577.347656 L 1430.289062 575.03125 L 1445.121094 571.136719 L 1447.015625 574.1875 L 1447.015625 673.496094 L 1457.851562 674.546875 L 1457.851562 678.863281 L 1424.820312 678.863281 L 1421.664062 662.660156 L 1421.242188 662.660156 C 1419.417969 665.328125 1417.699219 667.589844 1416.085938 669.445312 C 1414.472656 671.304688 1412.441406 673.304688 1409.984375 675.441406 C 1407.53125 677.582031 1404.707031 679.210938 1401.515625 680.335938 C 1398.324219 681.457031 1394.90625 682.019531 1391.257812 682.019531 C 1388.734375 682.019531 1386.28125 681.808594 1383.894531 681.386719 C 1381.511719 680.964844 1378.828125 680.035156 1375.847656 678.597656 C 1372.867188 677.164062 1370.308594 675.230469 1368.171875 672.8125 C 1366.03125 670.394531 1364.207031 666.992188 1362.699219 662.609375 C 1361.191406 658.226562 1360.4375 653.089844 1360.4375 647.195312 L 1360.4375 581.65625 Z M 1347.5 581.65625 "
       id="path54" />
    <path
       style=" stroke:none;fill-rule:nonzero;fill:rgb(97.999573%,28.999329%,28.999329%);fill-opacity:1;"
       d="M 1499.402344 618.058594 L 1533.378906 616.695312 C 1533.589844 613.136719 1533.695312 609.71875 1533.695312 606.4375 C 1533.695312 596.316406 1532.488281 588.539062 1530.066406 583.09375 C 1527.648438 577.648438 1523.632812 574.925781 1518.023438 574.925781 C 1514.65625 574.925781 1511.765625 576.027344 1509.34375 578.222656 C 1506.921875 580.421875 1505.046875 583.582031 1503.714844 587.699219 C 1502.382812 591.816406 1501.382812 596.300781 1500.71875 601.152344 C 1500.050781 606.003906 1499.613281 611.636719 1499.402344 618.058594 M 1472.472656 626.050781 C 1472.472656 620.582031 1473 615.234375 1474.050781 610.007812 C 1475.101562 604.785156 1476.820312 599.753906 1479.203125 594.914062 C 1481.589844 590.074219 1484.5 585.832031 1487.9375 582.183594 C 1491.371094 578.539062 1495.632812 575.609375 1500.71875 573.398438 C 1505.800781 571.191406 1511.429688 570.085938 1517.601562 570.085938 C 1523.421875 570.085938 1528.648438 570.914062 1533.277344 572.558594 C 1537.90625 574.207031 1541.761719 576.503906 1544.847656 579.449219 C 1547.933594 582.394531 1550.492188 585.992188 1552.527344 590.230469 C 1554.558594 594.476562 1556.015625 599.070312 1556.894531 604.015625 C 1557.769531 608.957031 1558.207031 614.375 1558.207031 620.265625 L 1555.367188 622.898438 L 1499.402344 622.898438 L 1499.402344 629.3125 C 1499.402344 659.890625 1508.097656 675.179688 1525.492188 675.179688 C 1537.835938 675.179688 1547.6875 669.007812 1555.050781 656.664062 L 1559.15625 659.191406 C 1550.109375 674.410156 1537.238281 682.019531 1520.546875 682.019531 C 1504.414062 682.019531 1492.371094 677.039062 1484.410156 667.078125 C 1476.453125 657.121094 1472.472656 643.449219 1472.472656 626.050781 "
       id="path56" />
  </g>
</svg>
